<svg width="256" height="256" style="isolation:isolate" version="1.1" xmlns="http://www.w3.org/2000/svg" xmlns:xlink="http://www.w3.org/1999/xlink">
  <defs>
    <linearGradient id="linearGradient4328" x1="200.6" x2="290.09" y1="351.41" y2="506.19" gradientTransform="translate(70.65 -1055.2)" gradientUnits="userSpaceOnUse">
      <stop stop-color="#458588" offset="0"/>
      <stop stop-color="#83a598" offset="1"/>
    </linearGradient>
    <linearGradient id="linearGradient4330" x1="-584.2" x2="-496.3" y1="782.34" y2="937.71" gradientTransform="translate(864.7 -1491.3)" gradientUnits="userSpaceOnUse">
      <stop stop-color="#076678" offset="0"/>
      <stop stop-color="#458588" offset="1"/>
    </linearGradient>
  </defs>
  <g filter="url(#a)">
    <linearGradient id="b" x1=".233" x2=".933" y1="-.071" y2=".924" gradientTransform="matrix(244.65 0 0 228.34 5.676 11.947)" gradientUnits="userSpaceOnUse">
      <stop stop-color="#ebdbb2" offset="0"/>
      <stop stop-color="#ebdbb2" offset="1"/>
    </linearGradient>
    <path d="m165.68 11.947c74.055 0 84.639 10.557 84.639 84.544v59.251c0 73.986-10.584 84.543-84.639 84.543h-75.37c-74.055 0-84.639-10.557-84.639-84.543v-59.251c0-73.987 10.584-84.544 84.639-84.544h75.37z" fill="url(#b)"/>
  </g>
  <linearGradient id="c" x2="0" y1=".5" y2="1.5" gradientTransform="matrix(59.358 0 0 227.1 5.676 12.567)" gradientUnits="userSpaceOnUse">
    <stop stop-color="#83a598" offset="0"/>
    <stop stop-color="#458588" offset="1"/>
  </linearGradient>
  <path d="M65 239.662c-51.265-3.095-59.324-19.357-59.324-83.92V96.491c0-64.579 8.063-80.833 59.358-83.923-.027-.605-.042 227.402-.034 227.094z" fill="url(#c)"/>
  <linearGradient id="e" x2="0" y1=".5" y2="1.5" gradientTransform="matrix(136.4 0 0 33.25 89.517 180.5)" gradientUnits="userSpaceOnUse">
    <stop stop-color="#83a598" offset="0"/>
    <stop stop-color="#458588" offset="1"/>
  </linearGradient>
  <path d="m103.71 213.75q-3.583 0-6.384-1.401-2.801-1.4-4.455-3.789-1.653-2.388-2.503-5.281-0.849-2.893-0.849-6.154 0-3.031 0.872-5.901 0.873-2.871 2.549-5.305t4.478-3.926q2.801-1.493 6.292-1.493 4.271 0 7.003 1.975 2.733 1.975 4.845 5.373l-6.108 3.444q-2.571-4.087-5.74-4.087-2.48 0-4.134 1.63-1.653 1.631-2.227 3.743-0.574 2.113-0.574 4.547 0 4.179 1.722 7.05 1.722 2.87 5.213 2.87 1.974 0 3.444-1.286t1.47-2.985v-0.23h-5.236v-6.659h12.4v5.052q0 6.016-3.375 9.415-3.376 3.398-8.703 3.398zm30.586 0q-2.572 0-4.845-0.666t-4.248-2.112q-1.975-1.447-3.146-4.065t-1.171-6.108v-19.748h6.98v19.748q0 3.444 1.539 4.822 1.538 1.378 4.891 1.378 3.261 0 4.845-1.401 1.585-1.4 1.585-4.799v-19.748h6.98v19.748q0 3.444-1.148 6.039t-3.1 4.065q-1.952 1.469-4.248 2.158t-4.914 0.689zm27.28-0.551h-6.981v-32.148h6.981zm7.072 0v-32.148h11.849q4.041 0 7.164 1.355t4.937 3.674 2.71 5.121q0.895 2.801 0.895 5.924 0 2.296-0.505 4.478-0.505 2.181-1.699 4.317-1.194 2.135-2.985 3.72-1.791 1.584-4.547 2.571-2.755 0.988-6.154 0.988zm6.981-6.659h5.419q3.95 0 5.924-2.825 1.975-2.824 1.975-6.59t-1.906-6.613q-1.906-2.848-5.488-2.848h-5.924zm50.288 6.659h-24.019v-32.148h23.101v6.613h-16.12v5.649h9.001v6.613h-9.001v6.614h17.038z" fill="url(#e)" fill-rule="evenodd"/>
  <g opacity=".4">
    <linearGradient id="f" x1=".517" x2=".517" y2="1" gradientTransform="matrix(244.65,0,0,228.34,5.68,11.95)" gradientUnits="userSpaceOnUse">
      <stop stop-color="#ebdbb2" offset="0"/>
      <stop stop-color="#ebdbb2" stop-opacity=".098" offset=".125"/>
      <stop stop-opacity=".098" offset=".925"/>
      <stop stop-opacity=".498" offset="1"/>
    </linearGradient>
    <path d="m165.07 11.951c4.328-0.01 8.656 0.04 12.984 0.138 3.875 0.078 7.75 0.226 11.626 0.452 3.453 0.196 6.905 0.481 10.348 0.854 3.06 0.335 6.118 0.786 9.148 1.346a80.47 80.47 0 0 1 8.046 1.916 53.64 53.64 0 0 1 7.023 2.584 40.413 40.413 0 0 1 6.06 3.35 35.176 35.176 0 0 1 5.134 4.215 35.072 35.072 0 0 1 4.22 5.119 41.692 41.692 0 0 1 3.363 6.042 55.982 55.982 0 0 1 2.597 7.005 80.224 80.224 0 0 1 1.918 8.037 124.43 124.43 0 0 1 1.348 9.127c0.374 3.439 0.659 6.878 0.856 10.326 0.226 3.861 0.373 7.732 0.462 11.593 0.088 4.323 0.138 8.646 0.128 12.96v58.21c0.01 4.324-0.04 8.637-0.128 12.96a325.18 325.18 0 0 1-0.462 11.593 200.98 200.98 0 0 1-0.856 10.326 124.69 124.69 0 0 1-1.348 9.137 80.687 80.687 0 0 1-1.918 8.027 55.414 55.414 0 0 1-2.597 7.005 41.18 41.18 0 0 1-3.364 6.042 34.559 34.559 0 0 1-4.22 5.119 35.177 35.177 0 0 1-5.134 4.215 40.412 40.412 0 0 1-6.059 3.35 55.138 55.138 0 0 1-7.023 2.594 77.806 77.806 0 0 1-8.046 1.906 120 120 0 0 1-9.148 1.346c-3.443 0.373-6.895 0.658-10.348 0.854-3.875 0.226-7.75 0.374-11.626 0.462-4.328 0.088-8.656 0.138-12.984 0.128h-74.126c-4.328 0.01-8.656-0.04-12.984-0.128a328.39 328.39 0 0 1-11.626-0.462 203 203 0 0 1-10.348-0.854 120 120 0 0 1-9.148-1.346 77.806 77.806 0 0 1-8.046-1.906 55.139 55.139 0 0 1-7.023-2.594 40.413 40.413 0 0 1-6.06-3.35 35.176 35.176 0 0 1-5.134-4.215 34.56 34.56 0 0 1-4.22-5.119 41.183 41.183 0 0 1-3.363-6.042 55.415 55.415 0 0 1-2.597-7.005 80.682 80.682 0 0 1-1.918-8.027 124.69 124.69 0 0 1-1.348-9.137 200.99 200.99 0 0 1-0.856-10.326 325.21 325.21 0 0 1-0.462-11.593 569.2 569.2 0 0 1-0.128-12.96v-58.21c-0.01-4.314 0.04-8.637 0.128-12.96 0.089-3.86 0.236-7.732 0.462-11.593 0.197-3.448 0.482-6.887 0.856-10.326 0.335-3.055 0.787-6.101 1.348-9.127a80.219 80.219 0 0 1 1.918-8.037 55.983 55.983 0 0 1 2.597-7.005 41.695 41.695 0 0 1 3.364-6.042 35.072 35.072 0 0 1 4.22-5.119 35.176 35.176 0 0 1 5.134-4.215 40.413 40.413 0 0 1 6.059-3.35 53.64 53.64 0 0 1 7.023-2.584 80.47 80.47 0 0 1 8.046-1.916 125.11 125.11 0 0 1 9.148-1.346c3.443-0.373 6.895-0.658 10.348-0.854 3.875-0.226 7.75-0.374 11.626-0.452 4.328-0.098 8.656-0.148 12.984-0.138zm0.01 4.009c4.298-0.01 8.597 0.039 12.895 0.127 3.827 0.089 7.653 0.236 11.48 0.452 3.383 0.197 6.766 0.472 10.13 0.845 2.971 0.315 5.932 0.747 8.863 1.297a75.943 75.943 0 0 1 7.653 1.818 50.493 50.493 0 0 1 6.501 2.397 37.038 37.038 0 0 1 5.47 3.026 30.383 30.383 0 0 1 4.524 3.724 31.05 31.05 0 0 1 3.738 4.519 37.271 37.271 0 0 1 3.03 5.443 51.46 51.46 0 0 1 2.4 6.494 75.563 75.563 0 0 1 1.829 7.634c0.54 2.928 0.974 5.875 1.298 8.842 0.374 3.36 0.65 6.73 0.846 10.11 0.217 3.822 0.374 7.634 0.453 11.456 0.088 4.293 0.137 8.577 0.137 12.87v58.212c0 4.293-0.049 8.577-0.137 12.87a317.5 317.5 0 0 1-0.453 11.456c-0.196 3.38-0.472 6.75-0.846 10.12a121.69 121.69 0 0 1-1.298 8.832 75.562 75.562 0 0 1-1.83 7.634 50.902 50.902 0 0 1-2.4 6.494 36.767 36.767 0 0 1-3.03 5.443 30.615 30.615 0 0 1-3.737 4.53 30.938 30.938 0 0 1-4.525 3.713 37.038 37.038 0 0 1-5.469 3.026 49.07 49.07 0 0 1-6.501 2.397 75.942 75.942 0 0 1-7.653 1.818c-2.931 0.55-5.892 0.982-8.863 1.306-3.364 0.364-6.747 0.649-10.13 0.836-3.827 0.216-7.653 0.373-11.48 0.452-4.298 0.098-8.597 0.137-12.895 0.137h-74.146c-4.298 0-8.597-0.04-12.895-0.137a320.09 320.09 0 0 1-11.48-0.452 193.7 193.7 0 0 1-10.13-0.836 116.71 116.71 0 0 1-8.863-1.306 75.942 75.942 0 0 1-7.653-1.818 49.07 49.07 0 0 1-6.501-2.397 37.038 37.038 0 0 1-5.47-3.026 30.938 30.938 0 0 1-4.524-3.714 30.615 30.615 0 0 1-3.738-4.529 36.766 36.766 0 0 1-3.03-5.443 50.903 50.903 0 0 1-2.4-6.494 75.567 75.567 0 0 1-1.829-7.634 121.69 121.69 0 0 1-1.298-8.832c-0.374-3.37-0.65-6.74-0.846-10.12a317.54 317.54 0 0 1-0.453-11.456 623.85 623.85 0 0 1-0.137-12.87v-58.212c0-4.293 0.049-8.577 0.137-12.87 0.079-3.822 0.236-7.634 0.453-11.456 0.197-3.38 0.472-6.75 0.846-10.11 0.324-2.967 0.757-5.914 1.298-8.842a75.568 75.568 0 0 1 1.83-7.634 51.46 51.46 0 0 1 2.4-6.494 37.27 37.27 0 0 1 3.03-5.443 31.05 31.05 0 0 1 3.737-4.52 30.384 30.384 0 0 1 4.525-3.723 37.039 37.039 0 0 1 5.469-3.026 50.494 50.494 0 0 1 6.501-2.397 75.943 75.943 0 0 1 7.653-1.818c2.931-0.55 5.892-0.982 8.863-1.297 3.364-0.373 6.747-0.648 10.13-0.845a344.71 344.71 0 0 1 11.48-0.452c4.298-0.088 8.597-0.137 12.895-0.127z" fill="url(#f)" fill-rule="evenodd"/>
  </g>
  <g transform="matrix(.24282 0 0 .24282 59.23 271.93)" stroke-width="1.0001">
    <path id="path3336-6" d="m309.55-710.39 122.2 211.68-56.157 0.5268-32.624-56.869-32.856 56.565-27.902-0.011-14.291-24.69 46.81-80.49-33.229-57.826z" fill="url(#linearGradient4328)" fill-rule="evenodd"/>
    <use transform="rotate(60 407.11 -715.79)" width="100%" height="100%" xlink:href="#path3336-6"/>
    <use transform="rotate(-60 407.31 -715.7)" width="100%" height="100%" xlink:href="#path3336-6"/>
    <use transform="rotate(180 407.42 -715.76)" width="100%" height="100%" xlink:href="#path3336-6"/>
    <path id="path4260-0" d="m309.55-710.39 122.2 211.68-56.157 0.5268-32.624-56.869-32.856 56.565-27.902-0.011-14.291-24.69 46.81-80.49-33.229-57.826z" color="#000000" color-rendering="auto" fill="url(#linearGradient4330)" fill-rule="evenodd" image-rendering="auto" shape-rendering="auto" solid-color="#000000" style="isolation:auto;mix-blend-mode:normal"/>
    <use transform="rotate(120 407.34 -716.08)" width="100%" height="100%" xlink:href="#path4260-0"/>
    <use transform="rotate(240 407.29 -715.87)" width="100%" height="100%" xlink:href="#path4260-0"/>
  </g>
</svg>
